<?xml version="1.0" encoding="UTF-8" standalone="no"?>
<svg
   xmlns:dc="http://purl.org/dc/elements/1.1/"
   xmlns:cc="http://creativecommons.org/ns#"
   xmlns:rdf="http://www.w3.org/1999/02/22-rdf-syntax-ns#"
   xmlns:svg="http://www.w3.org/2000/svg"
   xmlns="http://www.w3.org/2000/svg"
   xmlns:sodipodi="http://sodipodi.sourceforge.net/DTD/sodipodi-0.dtd"
   xmlns:inkscape="http://www.inkscape.org/namespaces/inkscape"
   version="1.1"
   viewBox="0 0 463 463"
   enable-background="new 0 0 463 463"
   id="svg28"
   sodipodi:docname="peti.svg"
   inkscape:version="0.92.4 (33fec40, 2019-01-16)">
  <metadata
     id="metadata34">
    <rdf:RDF>
      <cc:Work
         rdf:about="">
        <dc:format>image/svg+xml</dc:format>
        <dc:type
           rdf:resource="http://purl.org/dc/dcmitype/StillImage" />
        <dc:title></dc:title>
      </cc:Work>
    </rdf:RDF>
  </metadata>
  <defs
     id="defs32" />
  <sodipodi:namedview
     pagecolor="#ffffff"
     bordercolor="#666666"
     borderopacity="1"
     objecttolerance="10"
     gridtolerance="10"
     guidetolerance="10"
     inkscape:pageopacity="0"
     inkscape:pageshadow="2"
     inkscape:window-width="1315"
     inkscape:window-height="713"
     id="namedview30"
     showgrid="false"
     inkscape:zoom="1.1382289"
     inkscape:cx="231.5"
     inkscape:cy="231.5"
     inkscape:window-x="51"
     inkscape:window-y="27"
     inkscape:window-maximized="1"
     inkscape:current-layer="svg28" />
  <g
     id="g657"
     inkscape:export-filename="/home/pake/Pictures/peti.png"
     inkscape:export-xdpi="963"
     inkscape:export-ydpi="963">
    <g
       transform="translate(-72.041746,-14.935484)"
       id="g639">
      <path
         inkscape:connector-curvature="0"
         id="path10"
         d="m 504.2775,56 h -400 C 86.908499,56 72.777499,70.131 72.777499,87.5 v 288 c 0,17.369 14.131,31.5 31.500001,31.5 h 400 c 17.369,0 31.5,-14.131 31.5,-31.5 v -288 c 0,-17.369 -14.131,-31.5 -31.5,-31.5 z m 16.5,31.5 V 168 h -161 v -8.5 c 0,-2.997 -0.57,-5.862 -1.597,-8.5 h 138.097 c 4.142,0 7.5,-3.358 7.5,-7.5 V 71 h 0.5 c 9.098,0 16.5,7.402 16.5,16.5 z m -401,207.5 h 369 v 65 h -369 z m 369,-15 h -369 v -65 h 129.521 c 3.675,27.067 26.921,48 54.979,48 28.058,0 51.305,-20.933 54.979,-48 h 129.521 z m -369,-209 h 161 v 65 h -8.5 -152.5 z m 216.5,65 h -8.5 V 71 h 161 v 65 z m -23.5,0 h -17 V 71 h 17 z m 23.5,15 c 4.687,0 8.5,3.813 8.5,8.5 v 47.971 c 0,0.01 -10e-4,0.019 -10e-4,0.029 0,0.007 10e-4,0.013 10e-4,0.019 -0.011,22.323 -18.175,40.481 -40.5,40.481 -22.319,0 -40.478,-18.148 -40.499,-40.461 0,-0.013 0.002,-0.026 0.002,-0.039 0,-0.02 -0.003,-0.038 -0.003,-0.058 V 159.5 c 0,-4.687 3.813,-8.5 8.5,-8.5 z m -232,-80 h 0.5 v 72.5 c 0,4.142 3.358,7.5 7.5,7.5 h 138.097 c -1.027,2.638 -1.597,5.503 -1.597,8.5 V 168 H 87.777499 V 87.5 c 0,-9.098 7.402,-16.5 16.500001,-16.5 z m 400,321 h -400 c -9.098001,0 -16.500001,-7.402 -16.500001,-16.5 V 183 H 248.7775 v 17 h -136.5 c -4.142,0 -7.5,3.358 -7.5,7.5 v 160 c 0,4.142 3.358,7.5 7.5,7.5 h 384 c 4.142,0 7.5,-3.358 7.5,-7.5 v -160 c 0,-4.142 -3.358,-7.5 -7.5,-7.5 h -136.5 v -17 h 161 v 192.5 c 0,9.098 -7.402,16.5 -16.5,16.5 z" />
      <path
         inkscape:connector-curvature="0"
         id="path14"
         d="m 152.2775,89 c -7.995,0 -14.5,6.505 -14.5,14.5 0,7.995 6.505,14.5 14.5,14.5 7.995,0 14.5,-6.505 14.5,-14.5 0,-7.995 -6.505,-14.5 -14.5,-14.5 z" />
      <path
         inkscape:connector-curvature="0"
         id="path16"
         d="m 152.2775,233 c -7.995,0 -14.5,6.505 -14.5,14.5 0,7.995 6.505,14.5 14.5,14.5 7.995,0 14.5,-6.505 14.5,-14.5 0,-7.995 -6.505,-14.5 -14.5,-14.5 z" />
      <path
         inkscape:connector-curvature="0"
         id="path20"
         d="m 456.2775,89 c -7.995,0 -14.5,6.505 -14.5,14.5 0,7.995 6.505,14.5 14.5,14.5 7.995,0 14.5,-6.505 14.5,-14.5 0,-7.995 -6.505,-14.5 -14.5,-14.5 z" />
      <path
         inkscape:connector-curvature="0"
         id="path22"
         d="m 456.2775,262 c 7.995,0 14.5,-6.505 14.5,-14.5 0,-7.995 -6.505,-14.5 -14.5,-14.5 -7.995,0 -14.5,6.505 -14.5,14.5 0,7.995 6.505,14.5 14.5,14.5 z" />
      <g
         transform="matrix(-0.37718941,0,0,-0.43215338,341.04272,243.62285)"
         id="g58">
        <path
           inkscape:connector-curvature="0"
           style="fill:#1d1d1b"
           d="m 97.11,24.556 h -1.277 c -13.645,0 -26.892,3.896 -38.307,11.266 -3.48,2.247 -4.479,6.889 -2.233,10.369 2.247,3.48 6.891,4.48 10.369,2.233 8.986,-5.801 19.419,-8.868 30.171,-8.868 h 1.277 c 30.72,0 55.712,24.992 55.712,55.712 v 92.176 c 0,4.142 3.358,7.5 7.5,7.5 4.142,0 7.5,-3.358 7.5,-7.5 V 95.268 c 0,-38.991 -31.721,-70.712 -70.712,-70.712 z"
           id="path44" />
        <path
           inkscape:connector-curvature="0"
           style="fill:#1d1d1b"
           d="m 46.195,55.415 c -3.51,-2.199 -8.138,-1.133 -10.336,2.377 -7.024,11.22 -10.737,24.179 -10.737,37.475 v 78.489 c 0,4.142 3.358,7.5 7.5,7.5 4.142,0 7.5,-3.358 7.5,-7.5 V 95.268 c 0,-10.478 2.922,-20.684 8.451,-29.516 2.198,-3.511 1.133,-8.139 -2.378,-10.337 z"
           id="path46" />
        <path
           inkscape:connector-curvature="0"
           style="fill:#1d1d1b"
           d="M 97.863,49.222 H 97.08 c -25.525,0 -46.292,20.767 -46.292,46.292 v 88.798 c 0,4.142 3.358,7.5 7.5,7.5 4.142,0 7.5,-3.358 7.5,-7.5 V 95.514 c 0,-17.254 14.037,-31.292 31.292,-31.292 h 0.784 c 17.254,0 31.292,14.038 31.292,31.292 v 83.263 c 0,4.142 3.358,7.5 7.5,7.5 4.142,0 7.5,-3.358 7.5,-7.5 V 95.514 C 144.155,69.989 123.389,49.222 97.863,49.222 Z"
           id="path48" />
        <path
           inkscape:connector-curvature="0"
           style="fill:#1d1d1b"
           d="m 97.63,72.556 h -0.317 c -12.788,0 -23.192,10.404 -23.192,23.192 v 36.03 c 0,4.142 3.358,7.5 7.5,7.5 4.142,0 7.5,-3.358 7.5,-7.5 v -36.03 c 0,-4.517 3.675,-8.192 8.192,-8.192 h 0.317 c 4.517,0 8.192,3.675 8.192,8.192 v 53.029 c 0,4.142 3.358,7.5 7.5,7.5 4.142,0 7.5,-3.358 7.5,-7.5 V 95.748 c 0,-12.789 -10.404,-23.192 -23.192,-23.192 z"
           id="path50" />
        <path
           inkscape:connector-curvature="0"
           style="fill:#1d1d1b"
           d="m 81.621,149.277 c -4.142,0 -7.5,3.358 -7.5,7.5 v 30.667 c 0,4.142 3.358,7.5 7.5,7.5 4.142,0 7.5,-3.358 7.5,-7.5 v -30.667 c 0,-4.142 -3.358,-7.5 -7.5,-7.5 z"
           id="path52" />
        <path
           inkscape:connector-curvature="0"
           style="fill:#1d1d1b"
           d="m 185.877,141.277 c -4.142,0 -7.5,3.358 -7.5,7.5 v 35.535 c 0,4.142 3.358,7.5 7.5,7.5 4.142,0 7.5,-3.358 7.5,-7.5 v -35.535 c 0,-4.142 -3.357,-7.5 -7.5,-7.5 z"
           id="path54" />
        <path
           inkscape:connector-curvature="0"
           style="fill:#1d1d1b"
           d="M 98.355,0 H 96.587 C 44.192,0 1.566,42.626 1.566,95.022 v 89.29 c 0,4.142 3.358,7.5 7.5,7.5 4.142,0 7.5,-3.358 7.5,-7.5 V 95.022 C 16.566,50.898 52.463,15 96.587,15 h 1.768 c 44.124,0 80.022,35.898 80.022,80.022 v 27.755 c 0,4.142 3.358,7.5 7.5,7.5 4.142,0 7.5,-3.358 7.5,-7.5 V 95.022 C 193.377,42.626 150.751,0 98.355,0 Z"
           id="path56" />
      </g>
      <path
         d="m 139.73354,336.41014 c 0.90819,1.37213 2.0909,2.55837 3.48595,3.47756 2.01583,1.32878 4.45581,2.1123 7.08755,2.1123 2.63174,0 5.07172,-0.78117 7.08756,-2.1123 1.39351,-0.91919 2.57674,-2.10564 3.48517,-3.47756 1.00586,-1.51682 1.67164,-3.25968 1.87908,-5.13606 0.046,-0.42118 0.073,-0.84728 0.073,-1.27962 0,-0.38704 -0.0245,-0.76763 -0.0609,-1.14544 -0.0583,-0.58989 -0.15835,-1.16949 -0.30231,-1.73191 -0.10179,-0.3952 -0.22775,-0.78009 -0.36887,-1.15919 -0.0406,-0.10755 -0.0853,-0.21274 -0.12878,-0.31856 -0.11645,-0.28593 -0.24241,-0.56543 -0.3807,-0.84063 -0.25886,-0.51454 -0.55293,-1.00699 -0.88119,-1.47775 -0.11645,-0.16701 -0.23316,-0.33616 -0.35808,-0.49695 v 0 c 0,-0.002 -0.002,-0.002 -0.002,-0.002 -0.24961,-0.32135 -0.51643,-0.62939 -0.79842,-0.92434 -1.22539,-1.4477 -2.29886,-2.85933 -3.24508,-4.20978 -4.46533,-6.35922 -6.00047,-11.2789 -6.00047,-11.2789 0,0 -1.53668,4.9186 -5.99918,11.2789 -0.94802,1.35045 -2.01969,2.76208 -3.24739,4.20978 -0.28122,0.29495 -0.5483,0.60299 -0.79765,0.92434 0,0.002 -0.002,0.002 -0.002,0.002 v 0 c -0.12544,0.16079 -0.2406,0.32994 -0.35731,0.49695 -0.32877,0.47076 -0.62284,0.96321 -0.88118,1.47775 -0.13752,0.2752 -0.26503,0.55576 -0.38148,0.84063 -0.0435,0.10582 -0.0874,0.21101 -0.12801,0.31856 -0.14164,0.3793 -0.26785,0.7642 -0.36964,1.15919 -0.14447,0.56263 -0.24396,1.14094 -0.30231,1.73191 -0.0373,0.37802 -0.0609,0.7584 -0.0609,1.14544 0,0.43234 0.0264,0.85867 0.0733,1.27962 0.21156,1.87638 0.87785,3.61902 1.88088,5.13606 z m 16.7516,-13.7954 c 0.23854,0.22968 0.43493,0.47076 0.64803,0.70582 0.43649,0.48106 0.82696,0.97285 1.16293,1.47774 0.18431,0.27735 0.35242,0.55813 0.50717,0.84063 0.0568,0.10582 0.10848,0.21231 0.15989,0.31855 0.18971,0.38146 0.35525,0.76743 0.4879,1.1592 0.19664,0.56822 0.3334,1.14544 0.41334,1.73191 0.10694,0.79404 0.11799,1.60225 0.01,2.42528 -0.118,0.89944 -0.34575,1.81176 -0.72387,2.7361 -0.69946,1.698 -3.93657,0.96901 -3.23429,-0.74381 0.27916,-0.67576 0.45808,-1.33842 0.57195,-1.99229 0.14498,-0.82796 0.16143,-1.6381 0.027,-2.42528 -0.10179,-0.5899 -0.29818,-1.16606 -0.56372,-1.73191 -0.18585,-0.39284 -0.41232,-0.78009 -0.68043,-1.1592 -0.0758,-0.10517 -0.13675,-0.21401 -0.21952,-0.31855 -0.2221,-0.28464 -0.47967,-0.56436 -0.75086,-0.84063 -0.0678,-0.0668 -0.11671,-0.1376 -0.18714,-0.20371 -0.41772,-0.40465 -0.49895,-0.86252 -0.37428,-1.27403 0.29279,-0.97029 1.75004,-1.66709 2.74639,-0.70582 z"
         id="path516"
         inkscape:connector-curvature="0"
         style="stroke-width:0.23490603" />
      <path
         d="m 443.73254,336.41014 c 0.90819,1.37213 2.0909,2.55837 3.48595,3.47756 2.01583,1.32878 4.45581,2.1123 7.08755,2.1123 2.63174,0 5.07172,-0.78117 7.08756,-2.1123 1.39351,-0.91919 2.57674,-2.10564 3.48517,-3.47756 1.00586,-1.51682 1.67164,-3.25968 1.87908,-5.13606 0.046,-0.42118 0.073,-0.84728 0.073,-1.27962 0,-0.38704 -0.0245,-0.76763 -0.0609,-1.14544 -0.0583,-0.58989 -0.15835,-1.16949 -0.30231,-1.73191 -0.10179,-0.3952 -0.22775,-0.78009 -0.36887,-1.15919 -0.0406,-0.10755 -0.0853,-0.21274 -0.12878,-0.31856 -0.11645,-0.28593 -0.24241,-0.56543 -0.3807,-0.84063 -0.25886,-0.51454 -0.55293,-1.00699 -0.88119,-1.47775 -0.11645,-0.16701 -0.23316,-0.33616 -0.35808,-0.49695 v 0 c 0,-0.002 -0.002,-0.002 -0.002,-0.002 -0.24961,-0.32135 -0.51643,-0.62939 -0.79842,-0.92434 -1.22539,-1.4477 -2.29886,-2.85933 -3.24508,-4.20978 -4.46533,-6.35922 -6.00047,-11.2789 -6.00047,-11.2789 0,0 -1.53668,4.9186 -5.99918,11.2789 -0.94802,1.35045 -2.01969,2.76208 -3.24739,4.20978 -0.28122,0.29495 -0.5483,0.60299 -0.79765,0.92434 0,0.002 -0.002,0.002 -0.002,0.002 v 0 c -0.12544,0.16079 -0.2406,0.32994 -0.35731,0.49695 -0.32877,0.47076 -0.62284,0.96321 -0.88118,1.47775 -0.13752,0.2752 -0.26503,0.55576 -0.38148,0.84063 -0.0435,0.10582 -0.0874,0.21101 -0.12801,0.31856 -0.14164,0.3793 -0.26785,0.7642 -0.36964,1.15919 -0.14447,0.56263 -0.24396,1.14094 -0.30231,1.73191 -0.0373,0.37802 -0.0609,0.7584 -0.0609,1.14544 0,0.43234 0.0264,0.85867 0.0733,1.27962 0.21156,1.87638 0.87785,3.61902 1.88088,5.13606 z m 16.7516,-13.7954 c 0.23854,0.22968 0.43493,0.47076 0.64803,0.70582 0.43649,0.48106 0.82696,0.97285 1.16293,1.47774 0.18431,0.27735 0.35242,0.55813 0.50717,0.84063 0.0568,0.10582 0.10848,0.21231 0.15989,0.31855 0.18971,0.38146 0.35525,0.76743 0.4879,1.1592 0.19664,0.56822 0.3334,1.14544 0.41334,1.73191 0.10694,0.79404 0.11799,1.60225 0.01,2.42528 -0.118,0.89944 -0.34575,1.81176 -0.72387,2.7361 -0.69946,1.698 -3.93657,0.96901 -3.23429,-0.74381 0.27916,-0.67576 0.45808,-1.33842 0.57195,-1.99229 0.14498,-0.82796 0.16143,-1.6381 0.027,-2.42528 -0.10179,-0.5899 -0.29818,-1.16606 -0.56372,-1.73191 -0.18585,-0.39284 -0.41232,-0.78009 -0.68043,-1.1592 -0.0758,-0.10517 -0.13675,-0.21401 -0.21952,-0.31855 -0.2221,-0.28464 -0.47967,-0.56436 -0.75086,-0.84063 -0.0678,-0.0668 -0.11671,-0.1376 -0.18714,-0.20371 -0.41772,-0.40465 -0.49895,-0.86252 -0.37428,-1.27403 0.29279,-0.97029 1.75004,-1.66709 2.74639,-0.70582 z"
         id="path516-3"
         inkscape:connector-curvature="0"
         style="stroke-width:0.23490603" />
    </g>
  </g>
</svg>
